:FULLY-SPECIFIED
:FORCE-ALL-JOINTS-BE-3DOF
:DEGREES
1
root 6.24314 16.836 -28.1378 9.0217 -2.52979 -3.05774
lfemur -20.3712 2.30257 -19.9954
ltibia 35.927 0 0
lfoot -38.654 3.93715 0
ltoes 38.9541 0 0
rfemur -19.4747 0.22019 19.5256
rtibia 36.0342 0 0
rfoot -30.3779 -10.4967 0
rtoes 21.4483 0 0
lowerback -2.05144 3.66971 -5.03766
upperback -2.66728 5.00355 3.49279
thorax -2.36397 2.67023 6.42441
lowerneck -9.84699 -2.36864 1.94815
upperneck -1.37933 -3.32542 -1.65382
head 1.16433 -1.69823 -0.975663
lclavicle -1.65488e-14 -3.69739e-14 0
lhumerus -41.7253 -10.8128 99.8312
lradius 34.5094 0 0
lwrist 2.17521 0 0
lhand -10.5949 9.65639 0
lfingers 7.12502 0 0
lthumb 15.4107 39.062 0
rclavicle -1.65488e-14 -3.69739e-14 0
rhumerus -43.273 -4.86223 -84.2703
rradius 40.4763 0 0
rwrist 9.89469 0 0
rhand -23.7965 -22.476 0
rfingers 7.12502 0 0
rthumb 2.67393 -52.439 0
2
root 6.23902 16.8414 -28.1216 9.07594 -2.6785 -2.8931
lfemur -20.2195 2.28602 -20.1853
ltibia 35.7102 0 0
lfoot -38.6256 4.0751 0
ltoes 38.8959 0 0
rfemur -19.2965 0.253889 19.3416
rtibia 35.7005 0 0
rfoot -30.4177 -10.524 0
rtoes 21.572 0 0
lowerback -2.34204 3.66858 -5.05195
upperback -2.63353 5.01053 3.36551
thorax -2.15602 2.66449 6.32114
lowerneck -9.85822 -2.34826 1.98684
upperneck -1.38585 -3.30381 -1.59638
head 1.16482 -1.68637 -0.963473
lclavicle -1.89528e-14 -2.78426e-14 0
lhumerus -41.7923 -10.7335 99.6392
lradius 34.5733 0 0
lwrist 2.2642 0 0
lhand -9.60196 11.3134 0
lfingers 7.12502 0 0
lthumb 16.3665 40.6368 0
rclavicle -1.89528e-14 -2.78426e-14 0
rhumerus -43.2814 -4.86801 -84.4371
rradius 40.4578 0 0
rwrist 9.98319 0 0
rhand -23.8556 -22.3616 0
rfingers 7.12502 0 0
rthumb 2.61688 -52.3253 0
3
root 6.23222 16.8464 -28.1095 9.13451 -2.79732 -2.7891
lfemur -20.1172 2.28165 -20.2897
ltibia 35.528 0 0
lfoot -38.5669 4.18822 0
ltoes 38.8355 0 0
rfemur -19.124 0.425188 19.2367
rtibia 35.3481 0 0
rfoot -30.4153 -10.6728 0
rtoes 21.6666 0 0
lowerback -2.60383 3.66684 -5.01723
upperback -2.5954 5.015 3.25448
thorax -1.95645 2.65704 6.2056
lowerneck -9.86793 -2.33182 2.02521
upperneck -1.41674 -3.28755 -1.5333
head 1.15717 -1.67713 -0.949253
lclavicle -1.64447e-14 -2.04429e-14 0
lhumerus -41.8378 -10.717 99.4669
lradius 34.6476 0 0
lwrist 2.37762 0 0
lhand -9.25398 11.4323 0
lfingers 7.12502 0 0
lthumb 16.7014 40.7265 0
rclavicle -1.64447e-14 -2.04429e-14 0
rhumerus -43.2447 -4.87836 -84.6081
rradius 40.4413 0 0
rwrist 10.0479 0 0
rhand -23.9128 -22.276 0
rfingers 7.12502 0 0
rthumb 2.56163 -52.2404 0
4
root 6.22342 16.8508 -28.1009 9.19475 -2.8886 -2.73402
lfemur -20.0554 2.28573 -20.3256
ltibia 35.3773 0 0
lfoot -38.4865 4.27932 0
ltoes 38.7747 0 0
rfemur -18.9586 0.699537 19.1953
rtibia 34.9887 0 0
rfoot -30.3795 -10.9149 0
rtoes 21.7325 0 0
lowerback -2.83726 3.66395 -4.94453
upperback -2.55464 5.01639 3.15809
thorax -1.7676 2.64791 6.08224
lowerneck -9.87657 -2.31864 2.06282
upperneck -1.46564 -3.27563 -1.46751
head 1.14347 -1.67007 -0.933923
lclavicle -9.36389e-15 -1.35857e-14 0
lhumerus -41.866 -10.7506 99.3136
lradius 34.729 0 0
lwrist 2.50728 0 0
lhand -9.38106 10.4414 0
lfingers 7.12502 0 0
lthumb 16.579 39.7454 0
rclavicle -9.36389e-15 -1.35857e-14 0
rhumerus -43.1706 -4.89358 -84.7785
rradius 40.4226 0 0
rwrist 10.0941 0 0
rhand -23.9684 -22.2124 0
rfingers 7.12502 0 0
rthumb 2.50794 -52.1774 0
